<svg width="26" height="24" viewBox="0 0 26 24" fill="none" xmlns="http://www.w3.org/2000/svg">
<path fill-rule="evenodd" clip-rule="evenodd" d="M3.97974 4.125C3.97974 4.33211 4.15792 4.5 4.37771 4.5L21.0926 4.5C21.3124 4.5 21.4906 4.33211 21.4906 4.125C21.4906 3.91789 21.3124 3.75 21.0926 3.75L4.37771 3.75C4.15792 3.75 3.97974 3.91789 3.97974 4.125ZM9.22024 11.1427C9.06482 10.9962 9.06482 10.7588 9.22024 10.6124L12.0343 7.9607C12.4229 7.59459 13.0528 7.59458 13.4414 7.9607L16.2555 10.6123C16.4109 10.7588 16.4109 10.9962 16.2555 11.1427C16.1001 11.2891 15.8481 11.2891 15.6927 11.1427L13.1332 8.73093L13.1332 19.875C13.1332 20.0821 12.955 20.25 12.7352 20.25C12.5154 20.25 12.3372 20.0821 12.3372 19.875L12.3372 8.73597L9.78306 11.1427C9.62764 11.2891 9.37565 11.2891 9.22024 11.1427Z" fill="#2c71eb"/>
</svg>
